<svg width="296" height="296" viewBox="0 0 296 296" fill="none" xmlns="http://www.w3.org/2000/svg">
<path d="M8 0H0V8H8V0Z" fill="black"/>
<path d="M8 8H0V16H8V8Z" fill="black"/>
<path d="M8 16H0V24H8V16Z" fill="black"/>
<path d="M8 24H0V32H8V24Z" fill="black"/>
<path d="M8 32H0V40H8V32Z" fill="black"/>
<path d="M8 40H0V48H8V40Z" fill="black"/>
<path d="M8 48H0V56H8V48Z" fill="black"/>
<path d="M8 104H0V112H8V104Z" fill="black"/>
<path d="M8 120H0V128H8V120Z" fill="black"/>
<path d="M8 128H0V136H8V128Z" fill="black"/>
<path d="M8 136H0V144H8V136Z" fill="black"/>
<path d="M8 160H0V168H8V160Z" fill="black"/>
<path d="M8 176H0V184H8V176Z" fill="black"/>
<path d="M8 240H0V248H8V240Z" fill="black"/>
<path d="M8 248H0V256H8V248Z" fill="black"/>
<path d="M8 256H0V264H8V256Z" fill="black"/>
<path d="M8 264H0V272H8V264Z" fill="black"/>
<path d="M8 272H0V280H8V272Z" fill="black"/>
<path d="M8 280H0V288H8V280Z" fill="black"/>
<path d="M8 288H0V296H8V288Z" fill="black"/>
<path d="M16 0H8V8H16V0Z" fill="black"/>
<path d="M16 48H8V56H16V48Z" fill="black"/>
<path d="M16 64H8V72H16V64Z" fill="black"/>
<path d="M16 96H8V104H16V96Z" fill="black"/>
<path d="M16 128H8V136H16V128Z" fill="black"/>
<path d="M16 136H8V144H16V136Z" fill="black"/>
<path d="M16 144H8V152H16V144Z" fill="black"/>
<path d="M16 160H8V168H16V160Z" fill="black"/>
<path d="M16 176H8V184H16V176Z" fill="black"/>
<path d="M16 200H8V208H16V200Z" fill="black"/>
<path d="M16 216H8V224H16V216Z" fill="black"/>
<path d="M16 224H8V232H16V224Z" fill="black"/>
<path d="M16 240H8V248H16V240Z" fill="black"/>
<path d="M16 288H8V296H16V288Z" fill="black"/>
<path d="M24 0H16V8H24V0Z" fill="black"/>
<path d="M24 16H16V24H24V16Z" fill="black"/>
<path d="M24 24H16V32H24V24Z" fill="black"/>
<path d="M24 32H16V40H24V32Z" fill="black"/>
<path d="M24 48H16V56H24V48Z" fill="black"/>
<path d="M24 104H16V112H24V104Z" fill="black"/>
<path d="M24 112H16V120H24V112Z" fill="black"/>
<path d="M24 128H16V136H24V128Z" fill="black"/>
<path d="M24 136H16V144H24V136Z" fill="black"/>
<path d="M24 144H16V152H24V144Z" fill="black"/>
<path d="M24 168H16V176H24V168Z" fill="black"/>
<path d="M24 200H16V208H24V200Z" fill="black"/>
<path d="M24 240H16V248H24V240Z" fill="black"/>
<path d="M24 256H16V264H24V256Z" fill="black"/>
<path d="M24 264H16V272H24V264Z" fill="black"/>
<path d="M24 272H16V280H24V272Z" fill="black"/>
<path d="M24 288H16V296H24V288Z" fill="black"/>
<path d="M32 0H24V8H32V0Z" fill="black"/>
<path d="M32 16H24V24H32V16Z" fill="black"/>
<path d="M32 24H24V32H32V24Z" fill="black"/>
<path d="M32 32H24V40H32V32Z" fill="black"/>
<path d="M32 48H24V56H32V48Z" fill="black"/>
<path d="M32 64H24V72H32V64Z" fill="black"/>
<path d="M32 72H24V80H32V72Z" fill="black"/>
<path d="M32 88H24V96H32V88Z" fill="black"/>
<path d="M32 96H24V104H32V96Z" fill="black"/>
<path d="M32 104H24V112H32V104Z" fill="black"/>
<path d="M32 120H24V128H32V120Z" fill="black"/>
<path d="M32 168H24V176H32V168Z" fill="black"/>
<path d="M32 176H24V184H32V176Z" fill="black"/>
<path d="M32 184H24V192H32V184Z" fill="black"/>
<path d="M32 192H24V200H32V192Z" fill="black"/>
<path d="M32 200H24V208H32V200Z" fill="black"/>
<path d="M32 208H24V216H32V208Z" fill="black"/>
<path d="M32 216H24V224H32V216Z" fill="black"/>
<path d="M32 240H24V248H32V240Z" fill="black"/>
<path d="M32 256H24V264H32V256Z" fill="black"/>
<path d="M32 264H24V272H32V264Z" fill="black"/>
<path d="M32 272H24V280H32V272Z" fill="black"/>
<path d="M32 288H24V296H32V288Z" fill="black"/>
<path d="M40 0H32V8H40V0Z" fill="black"/>
<path d="M40 16H32V24H40V16Z" fill="black"/>
<path d="M40 24H32V32H40V24Z" fill="black"/>
<path d="M40 32H32V40H40V32Z" fill="black"/>
<path d="M40 48H32V56H40V48Z" fill="black"/>
<path d="M40 64H32V72H40V64Z" fill="black"/>
<path d="M40 72H32V80H40V72Z" fill="black"/>
<path d="M40 80H32V88H40V80Z" fill="black"/>
<path d="M40 88H32V96H40V88Z" fill="black"/>
<path d="M40 96H32V104H40V96Z" fill="black"/>
<path d="M40 160H32V168H40V160Z" fill="black"/>
<path d="M40 192H32V200H40V192Z" fill="black"/>
<path d="M40 200H32V208H40V200Z" fill="black"/>
<path d="M40 208H32V216H40V208Z" fill="black"/>
<path d="M40 224H32V232H40V224Z" fill="black"/>
<path d="M40 240H32V248H40V240Z" fill="black"/>
<path d="M40 256H32V264H40V256Z" fill="black"/>
<path d="M40 264H32V272H40V264Z" fill="black"/>
<path d="M40 272H32V280H40V272Z" fill="black"/>
<path d="M40 288H32V296H40V288Z" fill="black"/>
<path d="M48 0H40V8H48V0Z" fill="black"/>
<path d="M48 48H40V56H48V48Z" fill="black"/>
<path d="M48 64H40V72H48V64Z" fill="black"/>
<path d="M48 72H40V80H48V72Z" fill="black"/>
<path d="M48 80H40V88H48V80Z" fill="black"/>
<path d="M48 96H40V104H48V96Z" fill="black"/>
<path d="M48 112H40V120H48V112Z" fill="black"/>
<path d="M48 120H40V128H48V120Z" fill="black"/>
<path d="M48 136H40V144H48V136Z" fill="black"/>
<path d="M48 144H40V152H48V144Z" fill="black"/>
<path d="M48 160H40V168H48V160Z" fill="black"/>
<path d="M48 168H40V176H48V168Z" fill="black"/>
<path d="M48 184H40V192H48V184Z" fill="black"/>
<path d="M48 192H40V200H48V192Z" fill="black"/>
<path d="M48 208H40V216H48V208Z" fill="black"/>
<path d="M48 224H40V232H48V224Z" fill="black"/>
<path d="M48 240H40V248H48V240Z" fill="black"/>
<path d="M48 288H40V296H48V288Z" fill="black"/>
<path d="M56 0H48V8H56V0Z" fill="black"/>
<path d="M56 8H48V16H56V8Z" fill="black"/>
<path d="M56 16H48V24H56V16Z" fill="black"/>
<path d="M56 24H48V32H56V24Z" fill="black"/>
<path d="M56 32H48V40H56V32Z" fill="black"/>
<path d="M56 40H48V48H56V40Z" fill="black"/>
<path d="M56 48H48V56H56V48Z" fill="black"/>
<path d="M56 64H48V72H56V64Z" fill="black"/>
<path d="M56 80H48V88H56V80Z" fill="black"/>
<path d="M56 96H48V104H56V96Z" fill="black"/>
<path d="M56 112H48V120H56V112Z" fill="black"/>
<path d="M56 128H48V136H56V128Z" fill="black"/>
<path d="M56 144H48V152H56V144Z" fill="black"/>
<path d="M56 160H48V168H56V160Z" fill="black"/>
<path d="M56 176H48V184H56V176Z" fill="black"/>
<path d="M56 192H48V200H56V192Z" fill="black"/>
<path d="M56 208H48V216H56V208Z" fill="black"/>
<path d="M56 224H48V232H56V224Z" fill="black"/>
<path d="M56 240H48V248H56V240Z" fill="black"/>
<path d="M56 248H48V256H56V248Z" fill="black"/>
<path d="M56 256H48V264H56V256Z" fill="black"/>
<path d="M56 264H48V272H56V264Z" fill="black"/>
<path d="M56 272H48V280H56V272Z" fill="black"/>
<path d="M56 280H48V288H56V280Z" fill="black"/>
<path d="M56 288H48V296H56V288Z" fill="black"/>
<path d="M64 72H56V80H64V72Z" fill="black"/>
<path d="M64 88H56V96H64V88Z" fill="black"/>
<path d="M64 96H56V104H64V96Z" fill="black"/>
<path d="M64 112H56V120H64V112Z" fill="black"/>
<path d="M64 144H56V152H64V144Z" fill="black"/>
<path d="M64 160H56V168H64V160Z" fill="black"/>
<path d="M64 168H56V176H64V168Z" fill="black"/>
<path d="M64 200H56V208H64V200Z" fill="black"/>
<path d="M64 216H56V224H64V216Z" fill="black"/>
<path d="M72 8H64V16H72V8Z" fill="black"/>
<path d="M72 24H64V32H72V24Z" fill="black"/>
<path d="M72 32H64V40H72V32Z" fill="black"/>
<path d="M72 48H64V56H72V48Z" fill="black"/>
<path d="M72 56H64V64H72V56Z" fill="black"/>
<path d="M72 64H64V72H72V64Z" fill="black"/>
<path d="M72 88H64V96H72V88Z" fill="black"/>
<path d="M72 96H64V104H72V96Z" fill="black"/>
<path d="M72 104H64V112H72V104Z" fill="black"/>
<path d="M72 136H64V144H72V136Z" fill="black"/>
<path d="M72 144H64V152H72V144Z" fill="black"/>
<path d="M72 160H64V168H72V160Z" fill="black"/>
<path d="M72 184H64V192H72V184Z" fill="black"/>
<path d="M72 192H64V200H72V192Z" fill="black"/>
<path d="M72 200H64V208H72V200Z" fill="black"/>
<path d="M72 224H64V232H72V224Z" fill="black"/>
<path d="M72 232H64V240H72V232Z" fill="black"/>
<path d="M72 248H64V256H72V248Z" fill="black"/>
<path d="M72 256H64V264H72V256Z" fill="black"/>
<path d="M72 264H64V272H72V264Z" fill="black"/>
<path d="M72 280H64V288H72V280Z" fill="black"/>
<path d="M80 8H72V16H80V8Z" fill="black"/>
<path d="M80 24H72V32H80V24Z" fill="black"/>
<path d="M80 40H72V48H80V40Z" fill="black"/>
<path d="M80 56H72V64H80V56Z" fill="black"/>
<path d="M80 72H72V80H80V72Z" fill="black"/>
<path d="M80 88H72V96H80V88Z" fill="black"/>
<path d="M80 120H72V128H80V120Z" fill="black"/>
<path d="M80 136H72V144H80V136Z" fill="black"/>
<path d="M80 144H72V152H80V144Z" fill="black"/>
<path d="M80 200H72V208H80V200Z" fill="black"/>
<path d="M80 232H72V240H80V232Z" fill="black"/>
<path d="M80 240H72V248H80V240Z" fill="black"/>
<path d="M80 264H72V272H80V264Z" fill="black"/>
<path d="M80 280H72V288H80V280Z" fill="black"/>
<path d="M80 288H72V296H80V288Z" fill="black"/>
<path d="M88 8H80V16H88V8Z" fill="black"/>
<path d="M88 24H80V32H88V24Z" fill="black"/>
<path d="M88 40H80V48H88V40Z" fill="black"/>
<path d="M88 48H80V56H88V48Z" fill="black"/>
<path d="M88 56H80V64H88V56Z" fill="black"/>
<path d="M88 64H80V72H88V64Z" fill="black"/>
<path d="M88 112H80V120H88V112Z" fill="black"/>
<path d="M88 120H80V128H88V120Z" fill="black"/>
<path d="M88 128H80V136H88V128Z" fill="black"/>
<path d="M88 144H80V152H88V144Z" fill="black"/>
<path d="M88 152H80V160H88V152Z" fill="black"/>
<path d="M88 168H80V176H88V168Z" fill="black"/>
<path d="M88 176H80V184H88V176Z" fill="black"/>
<path d="M88 192H80V200H88V192Z" fill="black"/>
<path d="M88 200H80V208H88V200Z" fill="black"/>
<path d="M88 208H80V216H88V208Z" fill="black"/>
<path d="M88 248H80V256H88V248Z" fill="black"/>
<path d="M88 264H80V272H88V264Z" fill="black"/>
<path d="M88 288H80V296H88V288Z" fill="black"/>
<path d="M96 32H88V40H96V32Z" fill="black"/>
<path d="M96 40H88V48H96V40Z" fill="black"/>
<path d="M96 80H88V88H96V80Z" fill="black"/>
<path d="M96 88H88V96H96V88Z" fill="black"/>
<path d="M96 96H88V104H96V96Z" fill="black"/>
<path d="M96 104H88V112H96V104Z" fill="black"/>
<path d="M96 112H88V120H96V112Z" fill="black"/>
<path d="M96 136H88V144H96V136Z" fill="black"/>
<path d="M96 168H88V176H96V168Z" fill="black"/>
<path d="M96 192H88V200H96V192Z" fill="black"/>
<path d="M96 200H88V208H96V200Z" fill="black"/>
<path d="M96 208H88V216H96V208Z" fill="black"/>
<path d="M96 216H88V224H96V216Z" fill="black"/>
<path d="M96 232H88V240H96V232Z" fill="black"/>
<path d="M96 248H88V256H96V248Z" fill="black"/>
<path d="M96 256H88V264H96V256Z" fill="black"/>
<path d="M96 280H88V288H96V280Z" fill="black"/>
<path d="M104 8H96V16H104V8Z" fill="black"/>
<path d="M104 16H96V24H104V16Z" fill="black"/>
<path d="M104 24H96V32H104V24Z" fill="black"/>
<path d="M104 48H96V56H104V48Z" fill="black"/>
<path d="M104 88H96V96H104V88Z" fill="black"/>
<path d="M104 112H96V120H104V112Z" fill="black"/>
<path d="M104 168H96V176H104V168Z" fill="black"/>
<path d="M104 184H96V192H104V184Z" fill="black"/>
<path d="M104 200H96V208H104V200Z" fill="black"/>
<path d="M104 208H96V216H104V208Z" fill="black"/>
<path d="M104 216H96V224H104V216Z" fill="black"/>
<path d="M104 272H96V280H104V272Z" fill="black"/>
<path d="M104 280H96V288H104V280Z" fill="black"/>
<path d="M112 0H104V8H112V0Z" fill="black"/>
<path d="M112 24H104V32H112V24Z" fill="black"/>
<path d="M112 40H104V48H112V40Z" fill="black"/>
<path d="M112 64H104V72H112V64Z" fill="black"/>
<path d="M112 72H104V80H112V72Z" fill="black"/>
<path d="M112 80H104V88H112V80Z" fill="black"/>
<path d="M112 88H104V96H112V88Z" fill="black"/>
<path d="M112 104H104V112H112V104Z" fill="black"/>
<path d="M112 112H104V120H112V112Z" fill="black"/>
<path d="M112 152H104V160H112V152Z" fill="black"/>
<path d="M112 160H104V168H112V160Z" fill="black"/>
<path d="M112 184H104V192H112V184Z" fill="black"/>
<path d="M112 208H104V216H112V208Z" fill="black"/>
<path d="M112 248H104V256H112V248Z" fill="black"/>
<path d="M112 272H104V280H112V272Z" fill="black"/>
<path d="M112 280H104V288H112V280Z" fill="black"/>
<path d="M112 288H104V296H112V288Z" fill="black"/>
<path d="M120 8H112V16H120V8Z" fill="black"/>
<path d="M120 16H112V24H120V16Z" fill="black"/>
<path d="M120 32H112V40H120V32Z" fill="black"/>
<path d="M120 48H112V56H120V48Z" fill="black"/>
<path d="M120 56H112V64H120V56Z" fill="black"/>
<path d="M120 64H112V72H120V64Z" fill="black"/>
<path d="M120 72H112V80H120V72Z" fill="black"/>
<path d="M120 104H112V112H120V104Z" fill="black"/>
<path d="M120 128H112V136H120V128Z" fill="black"/>
<path d="M120 136H112V144H120V136Z" fill="black"/>
<path d="M120 144H112V152H120V144Z" fill="black"/>
<path d="M120 160H112V168H120V160Z" fill="black"/>
<path d="M120 168H112V176H120V168Z" fill="black"/>
<path d="M120 184H112V192H120V184Z" fill="black"/>
<path d="M120 200H112V208H120V200Z" fill="black"/>
<path d="M120 224H112V232H120V224Z" fill="black"/>
<path d="M120 264H112V272H120V264Z" fill="black"/>
<path d="M120 288H112V296H120V288Z" fill="black"/>
<path d="M128 0H120V8H128V0Z" fill="black"/>
<path d="M128 16H120V24H128V16Z" fill="black"/>
<path d="M128 40H120V48H128V40Z" fill="black"/>
<path d="M128 88H120V96H128V88Z" fill="black"/>
<path d="M128 104H120V112H128V104Z" fill="black"/>
<path d="M128 112H120V120H128V112Z" fill="black"/>
<path d="M128 120H120V128H128V120Z" fill="black"/>
<path d="M128 128H120V136H128V128Z" fill="black"/>
<path d="M128 136H120V144H128V136Z" fill="black"/>
<path d="M128 144H120V152H128V144Z" fill="black"/>
<path d="M128 160H120V168H128V160Z" fill="black"/>
<path d="M128 168H120V176H128V168Z" fill="black"/>
<path d="M128 184H120V192H128V184Z" fill="black"/>
<path d="M128 192H120V200H128V192Z" fill="black"/>
<path d="M128 200H120V208H128V200Z" fill="black"/>
<path d="M128 232H120V240H128V232Z" fill="black"/>
<path d="M128 240H120V248H128V240Z" fill="black"/>
<path d="M128 248H120V256H128V248Z" fill="black"/>
<path d="M128 272H120V280H128V272Z" fill="black"/>
<path d="M136 32H128V40H136V32Z" fill="black"/>
<path d="M136 40H128V48H136V40Z" fill="black"/>
<path d="M136 48H128V56H136V48Z" fill="black"/>
<path d="M136 56H128V64H136V56Z" fill="black"/>
<path d="M136 64H128V72H136V64Z" fill="black"/>
<path d="M136 72H128V80H136V72Z" fill="black"/>
<path d="M136 80H128V88H136V80Z" fill="black"/>
<path d="M136 104H128V112H136V104Z" fill="black"/>
<path d="M136 120H128V128H136V120Z" fill="black"/>
<path d="M136 128H128V136H136V128Z" fill="black"/>
<path d="M136 136H128V144H136V136Z" fill="black"/>
<path d="M136 144H128V152H136V144Z" fill="black"/>
<path d="M136 152H128V160H136V152Z" fill="black"/>
<path d="M136 160H128V168H136V160Z" fill="black"/>
<path d="M136 168H128V176H136V168Z" fill="black"/>
<path d="M136 176H128V184H136V176Z" fill="black"/>
<path d="M136 192H128V200H136V192Z" fill="black"/>
<path d="M136 200H128V208H136V200Z" fill="black"/>
<path d="M136 216H128V224H136V216Z" fill="black"/>
<path d="M136 248H128V256H136V248Z" fill="black"/>
<path d="M136 256H128V264H136V256Z" fill="black"/>
<path d="M136 264H128V272H136V264Z" fill="black"/>
<path d="M136 288H128V296H136V288Z" fill="black"/>
<path d="M144 0H136V8H144V0Z" fill="black"/>
<path d="M144 8H136V16H144V8Z" fill="black"/>
<path d="M144 40H136V48H144V40Z" fill="black"/>
<path d="M144 56H136V64H144V56Z" fill="black"/>
<path d="M144 64H136V72H144V64Z" fill="black"/>
<path d="M144 80H136V88H144V80Z" fill="black"/>
<path d="M144 104H136V112H144V104Z" fill="black"/>
<path d="M144 112H136V120H144V112Z" fill="black"/>
<path d="M144 120H136V128H144V120Z" fill="black"/>
<path d="M144 144H136V152H144V144Z" fill="black"/>
<path d="M144 152H136V160H144V152Z" fill="black"/>
<path d="M144 160H136V168H144V160Z" fill="black"/>
<path d="M144 176H136V184H144V176Z" fill="black"/>
<path d="M144 184H136V192H144V184Z" fill="black"/>
<path d="M144 192H136V200H144V192Z" fill="black"/>
<path d="M144 208H136V216H144V208Z" fill="black"/>
<path d="M144 216H136V224H144V216Z" fill="black"/>
<path d="M144 232H136V240H144V232Z" fill="black"/>
<path d="M144 240H136V248H144V240Z" fill="black"/>
<path d="M144 256H136V264H144V256Z" fill="black"/>
<path d="M144 280H136V288H144V280Z" fill="black"/>
<path d="M144 288H136V296H144V288Z" fill="black"/>
<path d="M152 0H144V8H152V0Z" fill="black"/>
<path d="M152 8H144V16H152V8Z" fill="black"/>
<path d="M152 16H144V24H152V16Z" fill="black"/>
<path d="M152 40H144V48H152V40Z" fill="black"/>
<path d="M152 48H144V56H152V48Z" fill="black"/>
<path d="M152 64H144V72H152V64Z" fill="black"/>
<path d="M152 72H144V80H152V72Z" fill="black"/>
<path d="M152 96H144V104H152V96Z" fill="black"/>
<path d="M152 136H144V144H152V136Z" fill="black"/>
<path d="M152 160H144V168H152V160Z" fill="black"/>
<path d="M152 168H144V176H152V168Z" fill="black"/>
<path d="M152 200H144V208H152V200Z" fill="black"/>
<path d="M152 216H144V224H152V216Z" fill="black"/>
<path d="M152 224H144V232H152V224Z" fill="black"/>
<path d="M152 240H144V248H152V240Z" fill="black"/>
<path d="M152 248H144V256H152V248Z" fill="black"/>
<path d="M152 256H144V264H152V256Z" fill="black"/>
<path d="M152 272H144V280H152V272Z" fill="black"/>
<path d="M152 280H144V288H152V280Z" fill="black"/>
<path d="M152 288H144V296H152V288Z" fill="black"/>
<path d="M160 40H152V48H160V40Z" fill="black"/>
<path d="M160 64H152V72H160V64Z" fill="black"/>
<path d="M160 88H152V96H160V88Z" fill="black"/>
<path d="M160 96H152V104H160V96Z" fill="black"/>
<path d="M160 104H152V112H160V104Z" fill="black"/>
<path d="M160 120H152V128H160V120Z" fill="black"/>
<path d="M160 128H152V136H160V128Z" fill="black"/>
<path d="M160 136H152V144H160V136Z" fill="black"/>
<path d="M160 152H152V160H160V152Z" fill="black"/>
<path d="M160 184H152V192H160V184Z" fill="black"/>
<path d="M160 192H152V200H160V192Z" fill="black"/>
<path d="M160 224H152V232H160V224Z" fill="black"/>
<path d="M160 256H152V264H160V256Z" fill="black"/>
<path d="M160 288H152V296H160V288Z" fill="black"/>
<path d="M168 0H160V8H168V0Z" fill="black"/>
<path d="M168 16H160V24H168V16Z" fill="black"/>
<path d="M168 40H160V48H168V40Z" fill="black"/>
<path d="M168 48H160V56H168V48Z" fill="black"/>
<path d="M168 88H160V96H168V88Z" fill="black"/>
<path d="M168 96H160V104H168V96Z" fill="black"/>
<path d="M168 104H160V112H168V104Z" fill="black"/>
<path d="M168 160H160V168H168V160Z" fill="black"/>
<path d="M168 168H160V176H168V168Z" fill="black"/>
<path d="M168 192H160V200H168V192Z" fill="black"/>
<path d="M168 200H160V208H168V200Z" fill="black"/>
<path d="M168 224H160V232H168V224Z" fill="black"/>
<path d="M168 248H160V256H168V248Z" fill="black"/>
<path d="M168 256H160V264H168V256Z" fill="black"/>
<path d="M168 264H160V272H168V264Z" fill="black"/>
<path d="M176 8H168V16H176V8Z" fill="black"/>
<path d="M176 16H168V24H176V16Z" fill="black"/>
<path d="M176 24H168V32H176V24Z" fill="black"/>
<path d="M176 40H168V48H176V40Z" fill="black"/>
<path d="M176 72H168V80H176V72Z" fill="black"/>
<path d="M176 80H168V88H176V80Z" fill="black"/>
<path d="M176 104H168V112H176V104Z" fill="black"/>
<path d="M176 128H168V136H176V128Z" fill="black"/>
<path d="M176 136H168V144H176V136Z" fill="black"/>
<path d="M176 144H168V152H176V144Z" fill="black"/>
<path d="M176 168H168V176H176V168Z" fill="black"/>
<path d="M176 200H168V208H176V200Z" fill="black"/>
<path d="M176 208H168V216H176V208Z" fill="black"/>
<path d="M176 232H168V240H176V232Z" fill="black"/>
<path d="M176 248H168V256H176V248Z" fill="black"/>
<path d="M176 256H168V264H176V256Z" fill="black"/>
<path d="M176 272H168V280H176V272Z" fill="black"/>
<path d="M184 0H176V8H184V0Z" fill="black"/>
<path d="M184 8H176V16H184V8Z" fill="black"/>
<path d="M184 16H176V24H184V16Z" fill="black"/>
<path d="M184 48H176V56H184V48Z" fill="black"/>
<path d="M184 64H176V72H184V64Z" fill="black"/>
<path d="M184 72H176V80H184V72Z" fill="black"/>
<path d="M184 80H176V88H184V80Z" fill="black"/>
<path d="M184 88H176V96H184V88Z" fill="black"/>
<path d="M184 136H176V144H184V136Z" fill="black"/>
<path d="M184 168H176V176H184V168Z" fill="black"/>
<path d="M184 176H176V184H184V176Z" fill="black"/>
<path d="M184 216H176V224H184V216Z" fill="black"/>
<path d="M184 224H176V232H184V224Z" fill="black"/>
<path d="M184 232H176V240H184V232Z" fill="black"/>
<path d="M184 264H176V272H184V264Z" fill="black"/>
<path d="M184 272H176V280H184V272Z" fill="black"/>
<path d="M192 16H184V24H192V16Z" fill="black"/>
<path d="M192 24H184V32H192V24Z" fill="black"/>
<path d="M192 40H184V48H192V40Z" fill="black"/>
<path d="M192 64H184V72H192V64Z" fill="black"/>
<path d="M192 72H184V80H192V72Z" fill="black"/>
<path d="M192 80H184V88H192V80Z" fill="black"/>
<path d="M192 88H184V96H192V88Z" fill="black"/>
<path d="M192 104H184V112H192V104Z" fill="black"/>
<path d="M192 120H184V128H192V120Z" fill="black"/>
<path d="M192 128H184V136H192V128Z" fill="black"/>
<path d="M192 144H184V152H192V144Z" fill="black"/>
<path d="M192 168H184V176H192V168Z" fill="black"/>
<path d="M192 176H184V184H192V176Z" fill="black"/>
<path d="M192 184H184V192H192V184Z" fill="black"/>
<path d="M192 192H184V200H192V192Z" fill="black"/>
<path d="M192 200H184V208H192V200Z" fill="black"/>
<path d="M192 216H184V224H192V216Z" fill="black"/>
<path d="M192 240H184V248H192V240Z" fill="black"/>
<path d="M192 248H184V256H192V248Z" fill="black"/>
<path d="M192 264H184V272H192V264Z" fill="black"/>
<path d="M192 272H184V280H192V272Z" fill="black"/>
<path d="M192 280H184V288H192V280Z" fill="black"/>
<path d="M192 288H184V296H192V288Z" fill="black"/>
<path d="M200 0H192V8H200V0Z" fill="black"/>
<path d="M200 8H192V16H200V8Z" fill="black"/>
<path d="M200 16H192V24H200V16Z" fill="black"/>
<path d="M200 24H192V32H200V24Z" fill="black"/>
<path d="M200 48H192V56H200V48Z" fill="black"/>
<path d="M200 56H192V64H200V56Z" fill="black"/>
<path d="M200 64H192V72H200V64Z" fill="black"/>
<path d="M200 88H192V96H200V88Z" fill="black"/>
<path d="M200 96H192V104H200V96Z" fill="black"/>
<path d="M200 104H192V112H200V104Z" fill="black"/>
<path d="M200 160H192V168H200V160Z" fill="black"/>
<path d="M200 192H192V200H200V192Z" fill="black"/>
<path d="M200 256H192V264H200V256Z" fill="black"/>
<path d="M200 272H192V280H200V272Z" fill="black"/>
<path d="M208 16H200V24H208V16Z" fill="black"/>
<path d="M208 24H200V32H208V24Z" fill="black"/>
<path d="M208 56H200V64H208V56Z" fill="black"/>
<path d="M208 72H200V80H208V72Z" fill="black"/>
<path d="M208 80H200V88H208V80Z" fill="black"/>
<path d="M208 128H200V136H208V128Z" fill="black"/>
<path d="M208 136H200V144H208V136Z" fill="black"/>
<path d="M208 144H200V152H208V144Z" fill="black"/>
<path d="M208 152H200V160H208V152Z" fill="black"/>
<path d="M208 168H200V176H208V168Z" fill="black"/>
<path d="M208 176H200V184H208V176Z" fill="black"/>
<path d="M208 200H200V208H208V200Z" fill="black"/>
<path d="M208 224H200V232H208V224Z" fill="black"/>
<path d="M208 232H200V240H208V232Z" fill="black"/>
<path d="M208 240H200V248H208V240Z" fill="black"/>
<path d="M208 248H200V256H208V248Z" fill="black"/>
<path d="M208 272H200V280H208V272Z" fill="black"/>
<path d="M216 0H208V8H216V0Z" fill="black"/>
<path d="M216 16H208V24H216V16Z" fill="black"/>
<path d="M216 24H208V32H216V24Z" fill="black"/>
<path d="M216 32H208V40H216V32Z" fill="black"/>
<path d="M216 48H208V56H216V48Z" fill="black"/>
<path d="M216 64H208V72H216V64Z" fill="black"/>
<path d="M216 72H208V80H216V72Z" fill="black"/>
<path d="M216 88H208V96H216V88Z" fill="black"/>
<path d="M216 112H208V120H216V112Z" fill="black"/>
<path d="M216 160H208V168H216V160Z" fill="black"/>
<path d="M216 168H208V176H216V168Z" fill="black"/>
<path d="M216 200H208V208H216V200Z" fill="black"/>
<path d="M216 208H208V216H216V208Z" fill="black"/>
<path d="M216 232H208V240H216V232Z" fill="black"/>
<path d="M216 264H208V272H216V264Z" fill="black"/>
<path d="M216 280H208V288H216V280Z" fill="black"/>
<path d="M224 56H216V64H224V56Z" fill="black"/>
<path d="M224 72H216V80H224V72Z" fill="black"/>
<path d="M224 80H216V88H224V80Z" fill="black"/>
<path d="M224 88H216V96H224V88Z" fill="black"/>
<path d="M224 104H216V112H224V104Z" fill="black"/>
<path d="M224 112H216V120H224V112Z" fill="black"/>
<path d="M224 120H216V128H224V120Z" fill="black"/>
<path d="M224 128H216V136H224V128Z" fill="black"/>
<path d="M224 136H216V144H224V136Z" fill="black"/>
<path d="M224 144H216V152H224V144Z" fill="black"/>
<path d="M224 152H216V160H224V152Z" fill="black"/>
<path d="M224 168H216V176H224V168Z" fill="black"/>
<path d="M224 176H216V184H224V176Z" fill="black"/>
<path d="M224 184H216V192H224V184Z" fill="black"/>
<path d="M224 200H216V208H224V200Z" fill="black"/>
<path d="M224 208H216V216H224V208Z" fill="black"/>
<path d="M224 216H216V224H224V216Z" fill="black"/>
<path d="M224 224H216V232H224V224Z" fill="black"/>
<path d="M224 248H216V256H224V248Z" fill="black"/>
<path d="M224 256H216V264H224V256Z" fill="black"/>
<path d="M224 264H216V272H224V264Z" fill="black"/>
<path d="M224 272H216V280H224V272Z" fill="black"/>
<path d="M224 288H216V296H224V288Z" fill="black"/>
<path d="M232 8H224V16H232V8Z" fill="black"/>
<path d="M232 16H224V24H232V16Z" fill="black"/>
<path d="M232 24H224V32H232V24Z" fill="black"/>
<path d="M232 48H224V56H232V48Z" fill="black"/>
<path d="M232 56H224V64H232V56Z" fill="black"/>
<path d="M232 64H224V72H232V64Z" fill="black"/>
<path d="M232 96H224V104H232V96Z" fill="black"/>
<path d="M232 104H224V112H232V104Z" fill="black"/>
<path d="M232 120H224V128H232V120Z" fill="black"/>
<path d="M232 144H224V152H232V144Z" fill="black"/>
<path d="M232 152H224V160H232V152Z" fill="black"/>
<path d="M232 160H224V168H232V160Z" fill="black"/>
<path d="M232 168H224V176H232V168Z" fill="black"/>
<path d="M232 184H224V192H232V184Z" fill="black"/>
<path d="M232 192H224V200H232V192Z" fill="black"/>
<path d="M232 200H224V208H232V200Z" fill="black"/>
<path d="M232 208H224V216H232V208Z" fill="black"/>
<path d="M232 216H224V224H232V216Z" fill="black"/>
<path d="M232 224H224V232H232V224Z" fill="black"/>
<path d="M232 232H224V240H232V232Z" fill="black"/>
<path d="M232 240H224V248H232V240Z" fill="black"/>
<path d="M232 248H224V256H232V248Z" fill="black"/>
<path d="M232 256H224V264H232V256Z" fill="black"/>
<path d="M232 288H224V296H232V288Z" fill="black"/>
<path d="M240 64H232V72H240V64Z" fill="black"/>
<path d="M240 80H232V88H240V80Z" fill="black"/>
<path d="M240 88H232V96H240V88Z" fill="black"/>
<path d="M240 104H232V112H240V104Z" fill="black"/>
<path d="M240 120H232V128H240V120Z" fill="black"/>
<path d="M240 136H232V144H240V136Z" fill="black"/>
<path d="M240 144H232V152H240V144Z" fill="black"/>
<path d="M240 152H232V160H240V152Z" fill="black"/>
<path d="M240 160H232V168H240V160Z" fill="black"/>
<path d="M240 168H232V176H240V168Z" fill="black"/>
<path d="M240 200H232V208H240V200Z" fill="black"/>
<path d="M240 216H232V224H240V216Z" fill="black"/>
<path d="M240 224H232V232H240V224Z" fill="black"/>
<path d="M240 256H232V264H240V256Z" fill="black"/>
<path d="M240 288H232V296H240V288Z" fill="black"/>
<path d="M248 0H240V8H248V0Z" fill="black"/>
<path d="M248 8H240V16H248V8Z" fill="black"/>
<path d="M248 16H240V24H248V16Z" fill="black"/>
<path d="M248 24H240V32H248V24Z" fill="black"/>
<path d="M248 32H240V40H248V32Z" fill="black"/>
<path d="M248 40H240V48H248V40Z" fill="black"/>
<path d="M248 48H240V56H248V48Z" fill="black"/>
<path d="M248 64H240V72H248V64Z" fill="black"/>
<path d="M248 80H240V88H248V80Z" fill="black"/>
<path d="M248 88H240V96H248V88Z" fill="black"/>
<path d="M248 96H240V104H248V96Z" fill="black"/>
<path d="M248 120H240V128H248V120Z" fill="black"/>
<path d="M248 128H240V136H248V128Z" fill="black"/>
<path d="M248 152H240V160H248V152Z" fill="black"/>
<path d="M248 160H240V168H248V160Z" fill="black"/>
<path d="M248 176H240V184H248V176Z" fill="black"/>
<path d="M248 184H240V192H248V184Z" fill="black"/>
<path d="M248 192H240V200H248V192Z" fill="black"/>
<path d="M248 208H240V216H248V208Z" fill="black"/>
<path d="M248 224H240V232H248V224Z" fill="black"/>
<path d="M248 240H240V248H248V240Z" fill="black"/>
<path d="M248 256H240V264H248V256Z" fill="black"/>
<path d="M248 264H240V272H248V264Z" fill="black"/>
<path d="M256 0H248V8H256V0Z" fill="black"/>
<path d="M256 48H248V56H256V48Z" fill="black"/>
<path d="M256 72H248V80H256V72Z" fill="black"/>
<path d="M256 96H248V104H256V96Z" fill="black"/>
<path d="M256 136H248V144H256V136Z" fill="black"/>
<path d="M256 144H248V152H256V144Z" fill="black"/>
<path d="M256 168H248V176H256V168Z" fill="black"/>
<path d="M256 184H248V192H256V184Z" fill="black"/>
<path d="M256 192H248V200H256V192Z" fill="black"/>
<path d="M256 216H248V224H256V216Z" fill="black"/>
<path d="M256 224H248V232H256V224Z" fill="black"/>
<path d="M256 256H248V264H256V256Z" fill="black"/>
<path d="M256 272H248V280H256V272Z" fill="black"/>
<path d="M264 0H256V8H264V0Z" fill="black"/>
<path d="M264 16H256V24H264V16Z" fill="black"/>
<path d="M264 24H256V32H264V24Z" fill="black"/>
<path d="M264 32H256V40H264V32Z" fill="black"/>
<path d="M264 48H256V56H264V48Z" fill="black"/>
<path d="M264 64H256V72H264V64Z" fill="black"/>
<path d="M264 72H256V80H264V72Z" fill="black"/>
<path d="M264 80H256V88H264V80Z" fill="black"/>
<path d="M264 88H256V96H264V88Z" fill="black"/>
<path d="M264 104H256V112H264V104Z" fill="black"/>
<path d="M264 112H256V120H264V112Z" fill="black"/>
<path d="M264 120H256V128H264V120Z" fill="black"/>
<path d="M264 144H256V152H264V144Z" fill="black"/>
<path d="M264 152H256V160H264V152Z" fill="black"/>
<path d="M264 160H256V168H264V160Z" fill="black"/>
<path d="M264 168H256V176H264V168Z" fill="black"/>
<path d="M264 176H256V184H264V176Z" fill="black"/>
<path d="M264 200H256V208H264V200Z" fill="black"/>
<path d="M264 224H256V232H264V224Z" fill="black"/>
<path d="M264 232H256V240H264V232Z" fill="black"/>
<path d="M264 240H256V248H264V240Z" fill="black"/>
<path d="M264 248H256V256H264V248Z" fill="black"/>
<path d="M264 256H256V264H264V256Z" fill="black"/>
<path d="M264 272H256V280H264V272Z" fill="black"/>
<path d="M264 280H256V288H264V280Z" fill="black"/>
<path d="M272 0H264V8H272V0Z" fill="black"/>
<path d="M272 16H264V24H272V16Z" fill="black"/>
<path d="M272 24H264V32H272V24Z" fill="black"/>
<path d="M272 32H264V40H272V32Z" fill="black"/>
<path d="M272 48H264V56H272V48Z" fill="black"/>
<path d="M272 64H264V72H272V64Z" fill="black"/>
<path d="M272 72H264V80H272V72Z" fill="black"/>
<path d="M272 88H264V96H272V88Z" fill="black"/>
<path d="M272 96H264V104H272V96Z" fill="black"/>
<path d="M272 112H264V120H272V112Z" fill="black"/>
<path d="M272 120H264V128H272V120Z" fill="black"/>
<path d="M272 152H264V160H272V152Z" fill="black"/>
<path d="M272 160H264V168H272V160Z" fill="black"/>
<path d="M272 184H264V192H272V184Z" fill="black"/>
<path d="M272 192H264V200H272V192Z" fill="black"/>
<path d="M272 200H264V208H272V200Z" fill="black"/>
<path d="M272 224H264V232H272V224Z" fill="black"/>
<path d="M272 232H264V240H272V232Z" fill="black"/>
<path d="M272 240H264V248H272V240Z" fill="black"/>
<path d="M272 248H264V256H272V248Z" fill="black"/>
<path d="M272 264H264V272H272V264Z" fill="black"/>
<path d="M272 280H264V288H272V280Z" fill="black"/>
<path d="M272 288H264V296H272V288Z" fill="black"/>
<path d="M280 0H272V8H280V0Z" fill="black"/>
<path d="M280 16H272V24H280V16Z" fill="black"/>
<path d="M280 24H272V32H280V24Z" fill="black"/>
<path d="M280 32H272V40H280V32Z" fill="black"/>
<path d="M280 48H272V56H280V48Z" fill="black"/>
<path d="M280 88H272V96H280V88Z" fill="black"/>
<path d="M280 104H272V112H280V104Z" fill="black"/>
<path d="M280 112H272V120H280V112Z" fill="black"/>
<path d="M280 120H272V128H280V120Z" fill="black"/>
<path d="M280 128H272V136H280V128Z" fill="black"/>
<path d="M280 168H272V176H280V168Z" fill="black"/>
<path d="M280 184H272V192H280V184Z" fill="black"/>
<path d="M280 200H272V208H280V200Z" fill="black"/>
<path d="M280 216H272V224H280V216Z" fill="black"/>
<path d="M280 224H272V232H280V224Z" fill="black"/>
<path d="M280 232H272V240H280V232Z" fill="black"/>
<path d="M280 240H272V248H280V240Z" fill="black"/>
<path d="M280 264H272V272H280V264Z" fill="black"/>
<path d="M280 280H272V288H280V280Z" fill="black"/>
<path d="M288 0H280V8H288V0Z" fill="black"/>
<path d="M288 48H280V56H288V48Z" fill="black"/>
<path d="M288 64H280V72H288V64Z" fill="black"/>
<path d="M288 88H280V96H288V88Z" fill="black"/>
<path d="M288 96H280V104H288V96Z" fill="black"/>
<path d="M288 112H280V120H288V112Z" fill="black"/>
<path d="M288 136H280V144H288V136Z" fill="black"/>
<path d="M288 184H280V192H288V184Z" fill="black"/>
<path d="M288 192H280V200H288V192Z" fill="black"/>
<path d="M288 200H280V208H288V200Z" fill="black"/>
<path d="M288 208H280V216H288V208Z" fill="black"/>
<path d="M288 232H280V240H288V232Z" fill="black"/>
<path d="M288 248H280V256H288V248Z" fill="black"/>
<path d="M288 264H280V272H288V264Z" fill="black"/>
<path d="M288 272H280V280H288V272Z" fill="black"/>
<path d="M288 280H280V288H288V280Z" fill="black"/>
<path d="M296 0H288V8H296V0Z" fill="black"/>
<path d="M296 8H288V16H296V8Z" fill="black"/>
<path d="M296 16H288V24H296V16Z" fill="black"/>
<path d="M296 24H288V32H296V24Z" fill="black"/>
<path d="M296 32H288V40H296V32Z" fill="black"/>
<path d="M296 40H288V48H296V40Z" fill="black"/>
<path d="M296 48H288V56H296V48Z" fill="black"/>
<path d="M296 80H288V88H296V80Z" fill="black"/>
<path d="M296 96H288V104H296V96Z" fill="black"/>
<path d="M296 112H288V120H296V112Z" fill="black"/>
<path d="M296 144H288V152H296V144Z" fill="black"/>
<path d="M296 176H288V184H296V176Z" fill="black"/>
<path d="M296 192H288V200H296V192Z" fill="black"/>
<path d="M296 208H288V216H296V208Z" fill="black"/>
<path d="M296 224H288V232H296V224Z" fill="black"/>
<path d="M296 240H288V248H296V240Z" fill="black"/>
<path d="M296 248H288V256H296V248Z" fill="black"/>
<path d="M296 272H288V280H296V272Z" fill="black"/>
<path d="M296 280H288V288H296V280Z" fill="black"/>
<path d="M296 288H288V296H296V288Z" fill="black"/>
</svg>
